<svg id="Layer_1" data-name="Layer 1" xmlns="http://www.w3.org/2000/svg" viewBox="0 0 50 42"><defs><style>.cls-1{fill:#fff;}</style></defs><title>84 x 84</title><path class="cls-1" d="M37.83,34.87H30.76a.93.93,0,0,1-.67-.3l-4.23-4.2L25,29.51,22.58,27.1l-.85-.86-1.94-1.93-.85-.86L16.52,21l-.89-.9L7.79,12.3a1,1,0,0,0-1.57.26A20.86,20.86,0,0,0,4.44,21a20.56,20.56,0,0,0,5,13.46,1,1,0,0,0,1.67-.63V26.76a.93.93,0,0,1,.3-.67L15,22.56a1,1,0,0,1,1.38,0l1.08,1.08a1,1,0,0,1,0,1.38l-2.57,2.49a.91.91,0,0,0-.3.67v4.61a1,1,0,0,0,1.64.66L21,28.62a1,1,0,0,1,1.38,0l1.08,1.08a1,1,0,0,1,0,1.38l-7.14,7.13a1,1,0,0,0,.26,1.57,20.61,20.61,0,0,0,21.86-3.24A1,1,0,0,0,37.83,34.87Z"/><path class="cls-1" d="M40.54,7.5a1,1,0,0,0-1.67.64v7a.91.91,0,0,1-.3.67L35,19.55a.84.84,0,0,1-1.15-.19l-1.07-1.08A1.07,1.07,0,0,1,32.59,17l2.56-2.56a.93.93,0,0,0,.3-.67V9.25a1,1,0,0,0-1.64-.67l-5.5,5.5-.86.86L25,17.36l-.9.85-1.26,1.27a1,1,0,0,1-1.37,0L20.43,18.4a1,1,0,0,1,0-1.38l1.26-1.26.86-.86L25,12.49l.86-.86L33.7,3.79a1,1,0,0,0-.26-1.57A20.61,20.61,0,0,0,11.58,5.46a1,1,0,0,0,.63,1.67h7a.93.93,0,0,1,.67.3L23.44,11a1,1,0,0,1,0,1.38L22.4,13.42a1,1,0,0,1-1.38,0l-2.53-2.57a.91.91,0,0,0-.67-.3H13.25a1,1,0,0,0-.67,1.64l5.5,5.5.86.86L21.36,21l.85.86,1.93,1.93.86.86L27.42,27l.85.86,3.24,3.23a.91.91,0,0,0,.67.3h4.61a1,1,0,0,0,.66-1.64L31.11,23.4v0l-.86.85L29,25.54a1,1,0,0,1-1.38,0l-1.08-1.08a1,1,0,0,1,0-1.38l1.27-1.26.85-.86,2.42-2.41.06-.07h0L42.21,29.63a1,1,0,0,0,1.57-.26A20.63,20.63,0,0,0,40.54,7.5Z"/></svg>