<svg id="Layer_1" data-name="Layer 1" xmlns="http://www.w3.org/2000/svg" viewBox="0 0 50 50"><defs><style>.cls-1{fill:#fff;}</style></defs><title>84 x 84</title><path class="cls-1" d="M26.46,40.42c-.45-.75-.85-1.42-1.24-2.1a.4.4,0,0,0-.43-.18h-5c-.29,0-.37.09-.36.37,0,.54,0,1.08,0,1.62,0,.24.08.31.32.31.55,0,1.11,0,1.66,0,.28,0,.42,0,.42.38q0,4.11,0,8.22c0,.32-.1.4-.4.4q-8.91,0-17.82,0c-.3,0-.41-.07-.41-.39q0-4.12,0-8.23c0-.33.12-.38.41-.38,1.55,0,3.09,0,4.64,0,.36,0,.47-.09.45-.45a14.22,14.22,0,0,1,0-1.46c0-.33-.1-.39-.4-.39H3.67c-.35,0-.48-.07-.46-.44a10.87,10.87,0,0,0,0-1.51c0-.36.12-.42.43-.42,1.52,0,3,0,4.55,0,.42,0,.56-.11.52-.53a10.29,10.29,0,0,1,0-1.36c0-.35-.11-.42-.42-.41-1.54,0-3.07,0-4.6,0-.37,0-.51-.08-.48-.47a8.9,8.9,0,0,0,0-1.46c0-.37.12-.45.46-.44,1.51,0,3,0,4.54,0,.4,0,.53-.11.5-.51a11.06,11.06,0,0,1,0-1.41c0-.33-.1-.39-.4-.39-1.55,0-3.1,0-4.64,0-.35,0-.47-.08-.46-.45,0-.75,0-1.51,0-2.27,0-.4.13-.47.49-.46,2.35,0,4.71,0,7.06,0H25.25A9.77,9.77,0,0,0,28,25.31c3-.9,4.14-3.2,3.78-6s-2.09-4.19-4.91-4.5a17.33,17.33,0,0,0-1.91-.1H17.33a1,1,0,0,0-.68.24,7.71,7.71,0,0,1-8.23,1.46A7.77,7.77,0,0,1,3.29,9.7,8.11,8.11,0,0,1,10.5.63a7.73,7.73,0,0,1,6.15,2,1.17,1.17,0,0,0,.81.3c3.24,0,6.49,0,9.74,0a21.5,21.5,0,0,1,9.73,2.2,17,17,0,0,1,8.17,7.57,18.81,18.81,0,0,1,2,8.55,16.35,16.35,0,0,1-1.34,7.07A14.41,14.41,0,0,1,39.65,35c-.28.16-.33.26-.13.54q1.63,2.28,3.21,4.58a.66.66,0,0,0,.63.32h3.33c.32,0,.43.08.42.42,0,2.71,0,5.42,0,8.12,0,.42-.16.46-.5.46h-22c-.39,0-.5-.1-.5-.5,0-2.68,0-5.35,0-8,0-.37.09-.5.47-.47C25.18,40.45,25.78,40.42,26.46,40.42ZM15.35,8.77a4,4,0,0,0-4.12-4,4.07,4.07,0,1,0,4.12,4.05Z"/></svg>