<svg id="Layer_1" data-name="Layer 1" xmlns="http://www.w3.org/2000/svg" viewBox="0 0 75.48 50"><defs><style>.cls-1{fill:#fff;}</style></defs><title>84 x 84</title><path class="cls-1" d="M40.91,18.15l-6-7-1.72-2H27.52v3l4.21,4.94H27.52V18h5l.84,1H27.52v.91h6.6l.85,1H27.52v.9h8.22l.85,1H27.52v.91h9.84L42,29.08H47.6V25.94h0V23.7H45.74l-.8-.91H47.6v-1H44.07l-.67-.75-.12-.14H47.6v-1H42.43L41.64,19h6V18H40.91Z"/><polygon class="cls-1" points="40.91 11.14 40.91 14.79 40.91 17.11 47.6 17.11 47.6 11.14 47.6 9.15 40.91 9.15 40.91 11.14"/><path class="cls-1" d="M66.05,30H59.81a22.36,22.36,0,0,0,.49-3.28,22.81,22.81,0,1,0-45.48-3.52A23,23,0,0,0,15.3,30h0c0,.11,0,.22.08.33,0-.11-.05-.22-.08-.33H9.07a1.33,1.33,0,0,0-1.33,1.33v7.26A1.32,1.32,0,0,0,9.07,40h14.3l-.3-.28.3.28H51.75c-.25.24-.51.47-.77.7A20.62,20.62,0,0,1,23.37,40h-3A22.58,22.58,0,0,0,35.8,47.74c.6,0,1.2.07,1.8.07a22.6,22.6,0,0,0,14.8-5.49A22.11,22.11,0,0,0,54.78,40H66.05a1.32,1.32,0,0,0,1.33-1.33V31.37A1.33,1.33,0,0,0,66.05,30ZM17,23.41a20.62,20.62,0,1,1,41.12,3.18A20.86,20.86,0,0,1,57.56,30h-40A20.7,20.7,0,0,1,17,23.41ZM66.6,38.63a.55.55,0,0,1-.55.55H19.7q.26.33.54.66l.06.07-.06-.07q-.28-.33-.54-.66H9.07a.55.55,0,0,1-.55-.55V31.37a.55.55,0,0,1,.55-.55h6.42a.44.44,0,0,0,0-.1.44.44,0,0,1,0,.1h2.28a5.44,5.44,0,0,1-.15-.54,5.44,5.44,0,0,0,.15.54H66.05a.55.55,0,0,1,.55.55Z"/><path class="cls-1" d="M23.51,38a3.28,3.28,0,0,0,.93-.12,2.18,2.18,0,0,0,.72-.34,1.55,1.55,0,0,0,.45-.54,1.57,1.57,0,0,0,.16-.73,1.67,1.67,0,0,0-.13-.69,1.85,1.85,0,0,0-.39-.55,2.45,2.45,0,0,0-.65-.43,5.33,5.33,0,0,0-.89-.35,3.5,3.5,0,0,1-.93-.39.6.6,0,0,1-.31-.52.67.67,0,0,1,.06-.28.59.59,0,0,1,.19-.23.71.71,0,0,1,.3-.15,1.46,1.46,0,0,1,.44-.06,1.27,1.27,0,0,1,.46.07.92.92,0,0,1,.32.18.81.81,0,0,1,.19.29,1,1,0,0,1,.06.36h1.28a1.8,1.8,0,0,0-.16-.77,1.82,1.82,0,0,0-.46-.61,2.28,2.28,0,0,0-.72-.4,3.16,3.16,0,0,0-.95-.14,3.36,3.36,0,0,0-.92.12,2.49,2.49,0,0,0-.73.36,1.55,1.55,0,0,0-.47.55,1.41,1.41,0,0,0-.17.71,1.46,1.46,0,0,0,.16.71,1.91,1.91,0,0,0,.45.54,3,3,0,0,0,.66.4,8.53,8.53,0,0,0,.81.31,5.65,5.65,0,0,1,.61.22,2.41,2.41,0,0,1,.38.22.63.63,0,0,1,.18.24,1,1,0,0,1,0,.3.66.66,0,0,1-.05.28.63.63,0,0,1-.18.22A.84.84,0,0,1,24,37a1.48,1.48,0,0,1-.44.05A2.57,2.57,0,0,1,23,37a1.17,1.17,0,0,1-.39-.18.8.8,0,0,1-.25-.32,1.14,1.14,0,0,1-.09-.48H21a2.1,2.1,0,0,0,.1.64,1.86,1.86,0,0,0,.28.52,2,2,0,0,0,.42.39,2.36,2.36,0,0,0,.52.28,2.85,2.85,0,0,0,.59.16A3.15,3.15,0,0,0,23.51,38Z"/><polygon class="cls-1" points="30.82 36.92 27.92 36.92 27.92 35.25 30.39 35.25 30.39 34.25 27.92 34.25 27.92 32.76 30.81 32.76 30.81 31.72 26.64 31.72 26.64 37.95 30.82 37.95 30.82 36.92"/><path class="cls-1" d="M32.84,36.67h2.25L35.52,38h1.36l-2.33-6.23H33.36L31,38h1.37ZM34,33.3l.78,2.33H33.18Z"/><path class="cls-1" d="M38.75,35.67h1L40.94,38h1.38v-.06L41,35.35a2.35,2.35,0,0,0,.46-.28,1.54,1.54,0,0,0,.35-.37,1.51,1.51,0,0,0,.22-.48,2.31,2.31,0,0,0,.08-.61,1.94,1.94,0,0,0-.16-.82,1.53,1.53,0,0,0-.45-.59,2.2,2.2,0,0,0-.72-.35,3.25,3.25,0,0,0-1-.13H37.46V38h1.29Zm0-2.91h1a1.05,1.05,0,0,1,.77.26.94.94,0,0,1,.25.69,1,1,0,0,1-.07.38.7.7,0,0,1-.19.29,1,1,0,0,1-.31.19,1.53,1.53,0,0,1-.45.06h-1Z"/><path class="cls-1" d="M43.55,37.23a2.2,2.2,0,0,0,.81.6,2.67,2.67,0,0,0,1.08.21,3.27,3.27,0,0,0,1-.16,2.29,2.29,0,0,0,.76-.45,2,2,0,0,0,.5-.68,2.78,2.78,0,0,0,.22-.87H46.66a1.63,1.63,0,0,1-.1.48,1,1,0,0,1-.23.35.8.8,0,0,1-.37.21,1.6,1.6,0,0,1-.52.07,1.35,1.35,0,0,1-.59-.12,1,1,0,0,1-.39-.37,1.81,1.81,0,0,1-.22-.61,4.19,4.19,0,0,1-.07-.84v-.42a2.63,2.63,0,0,1,.32-1.47,1.09,1.09,0,0,1,1-.47,1.62,1.62,0,0,1,.53.07.9.9,0,0,1,.58.58,1.85,1.85,0,0,1,.1.5H48a2.78,2.78,0,0,0-.22-.88,2.16,2.16,0,0,0-.49-.7,2.06,2.06,0,0,0-.76-.46,2.91,2.91,0,0,0-1-.16,2.62,2.62,0,0,0-1.07.21,2.24,2.24,0,0,0-.82.6,2.76,2.76,0,0,0-.52.94,4.06,4.06,0,0,0-.18,1.25v.41A4.32,4.32,0,0,0,43,36.29,2.74,2.74,0,0,0,43.55,37.23Z"/><polygon class="cls-1" points="50.07 35.28 52.57 35.28 52.57 37.95 53.86 37.95 53.86 31.72 52.57 31.72 52.57 34.25 50.07 34.25 50.07 31.72 48.79 31.72 48.79 37.95 50.07 37.95 50.07 35.28"/></svg>