<svg id="Layer_1" data-name="Layer 1" xmlns="http://www.w3.org/2000/svg" viewBox="0 0 84 84"><defs><style>.cls-1{fill:#fff;}</style></defs><title>84 x 84</title><path class="cls-1" d="M11.94,60.91a13.92,13.92,0,0,0,1.11,2l9.79-6.58a14.32,14.32,0,0,0-1.27-1.87Z"/><path class="cls-1" d="M18.71,51.51,10.6,57c.19.77.41,1.53.67,2.27L20.4,53.1C19.85,52.54,19.28,52,18.71,51.51Z"/><path class="cls-1" d="M44,1.25c-.61,0-1.22-.05-1.84-.05H42a40.8,40.8,0,0,0,0,81.6h.13c.62,0,1.23,0,1.84,0a40.8,40.8,0,0,0,0-81.5Zm32,26c-.08.63-.19,1.25-.3,1.87q-1-.12-2-.21l-1.48-.15a21.58,21.58,0,0,0,.33-7.73A37.14,37.14,0,0,1,76,27.27Zm-5.82-12.9ZM58.71,9.61c0-.17,0-.34,0-.52a38,38,0,0,1,5.15,3.16A51,51,0,0,0,58.67,11C58.68,10.53,58.7,10.07,58.71,9.61ZM54.39,11c0-.13,0-.26,0-.39s0-.25,0-.38,0-.48,0-.72c0-.72.05-1.45.07-2.18A35.42,35.42,0,0,1,58,8.73l0,.85c0,.43,0,.84,0,1.26,0,.13,0,.26,0,.38s0,.26,0,.39a53,53,0,0,0,.19,7.59l7.59-5.55c.46.38.92.78,1.36,1.18l-8.6,6.3a9.75,9.75,0,0,0,.81,2.21l9.44-6.91c.41.43.81.86,1.2,1.31l-9.64,7.05a11.34,11.34,0,0,0,1.66,1.6l9.42-6.91c.36.47.71.94,1.05,1.42l-8.89,6.51a21.17,21.17,0,0,0,7.76,2l.38,0,.38,0,1.55.15,2,.2.38,0,.37,0,.79.1a35.32,35.32,0,0,1,1.07,3.72c-.84-.15-1.71-.27-2.61-.37l-.38,0-.38,0-1.56-.15-2-.21-.38,0-.38,0c-4.9-.59-10-1.8-13.56-6.65C54.22,22.58,54.2,17,54.39,11ZM49.08,45.87H56.2v1.36h-6l.17.2.92,1H56.2v1.36H52.54l1.1,1.25H56.2v7.41H48.43l-6.32-7.41H28.57V49.82H41.05l-1.17-1.36H28.57V47.22H38.82l-1.16-1.36H28.57V44.61h8l-1.16-1.36H28.57V42h5.8l-5.8-6.79V31.05h7.77l2.35,2.74L47,43.44v-.19H56.2v1.36H48ZM47,42V31.05H56.2V42ZM41.41,5.12h1.43A36.84,36.84,0,0,1,53.76,7c0,.81,0,1.62-.07,2.42l0,.6a52.81,52.81,0,0,1-8.33-2.18,9.59,9.59,0,0,1-3.2-2,9.63,9.63,0,0,1-3.21,2A52.81,52.81,0,0,1,30.59,10c0-.2,0-.4,0-.6,0-.83-.06-1.66-.08-2.5A37.13,37.13,0,0,1,41.41,5.12ZM25.52,9c0,.21,0,.43,0,.64,0,.46,0,.92,0,1.38a46.8,46.8,0,0,0-5.66,1.41A37.14,37.14,0,0,1,25.52,9ZM6.93,30.1,8,30l.37,0,.38,0,2-.2,1.54-.15.38,0,.38,0a21.17,21.17,0,0,0,7.76-2l-8.95-6.56a20.91,20.91,0,0,0,.29,7.93l-1.48.15q-1,.09-2,.21Q8.38,28,8.23,26.83a37,37,0,0,1,3.49-6l.16-.23c.29-.4.58-.79.89-1.18l9.58,7A11.34,11.34,0,0,0,24,24.79l-9.79-7.17c.39-.44.8-.87,1.21-1.29l9.58,7a9.75,9.75,0,0,0,.81-2.21l-8.74-6.4c.45-.41.9-.8,1.37-1.18l7.72,5.65a51.55,51.55,0,0,0,.19-7.59c0-.13,0-.26,0-.39s0-.25,0-.38c0-.42,0-.83,0-1.26l0-1c1.13-.53,2.29-1,3.48-1.42,0,.76.05,1.52.07,2.27l0,.72c0,.13,0,.26,0,.38s0,.26,0,.39c.19,6,.17,11.63-2.52,15.3-3.55,4.85-8.66,6.06-13.56,6.65l-.38,0L13,33l-2,.21-1.56.15-.38,0-.38,0c-1,.12-1.95.25-2.87.42A36.38,36.38,0,0,1,6.93,30.1Zm-2,12.06v-.32l4.4,3.23-1,1.42L5,44.06C4.94,43.43,4.92,42.8,4.92,42.16ZM27.5,68c0,.13,0,.26,0,.39l0,.38c-.05.77-.11,1.54-.17,2.3l-.09,1.25,0,.39c0,.12,0,.25,0,.38-.07,1-.14,2-.17,3a38.28,38.28,0,0,1-3.44-1.75c0-.67.08-1.35.13-2l0-.38,0-.39c0-.23,0-.47.05-.71.07-.94.14-1.89.2-2.84l0-.39c0-.12,0-.25,0-.38a59.06,59.06,0,0,0,.08-6.9,8.44,8.44,0,0,0-.5-2.32l-9.41,6.32a5.88,5.88,0,0,0,1.9,1.29,47.18,47.18,0,0,0,7.14,2.2l-.21,3c0,.2,0,.4-.05.6-1.93-.46-3.87-1-5.75-1.58A37.05,37.05,0,0,1,6.35,52.36c-.07-.22-.13-.43-.18-.65C6,51,5.81,50.28,5.66,49.56c0-.25-.1-.5-.14-.74-.11-.58-.2-1.17-.28-1.75l1,.69h.92a12,12,0,0,0,2.48-2.51,5.54,5.54,0,0,0,.95-2.11l-5.5-4c.06-.67.13-1.35.23-2l5.49,4a32.63,32.63,0,0,0-1.1-7.05l1.46-.14,2.07-.21C14,37.41,14.72,40.94,14,44c4.37,2.37,13.17,8.11,13.65,16A63.33,63.33,0,0,1,27.5,68ZM53,77.54c-.73.23-1.48.44-2.24.62l-3.08-2.07a9.66,9.66,0,0,0-1.75,1.55l1.69,1.14c-.89.13-1.78.24-2.69.31h0l-1,.06c-.64,0-1.29,0-1.94,0l-1,0c-.3,0-.6,0-.89,0l-.42,0c-.93-.05-1.84-.15-2.75-.27l2-1.37a9.33,9.33,0,0,0-1.75-1.55L33.7,78.27c-.77-.18-1.52-.38-2.27-.6l4.06-2.73a35.47,35.47,0,0,0-7.56-2.49c0-.45.07-.91.11-1.37l.15-2.19c5.92,1.39,11.3,3,14.24,7.39l0,.07c3-4.31,8.3-5.92,14.17-7.3.05.73.11,1.46.16,2.19,0,.46.07.91.1,1.37a35.85,35.85,0,0,0-7.56,2.49Zm17.15-7.87h0l0,0Zm8.49-21.75-.12.76c-.06.34-.13.67-.2,1-.18.86-.39,1.72-.62,2.56a38.19,38.19,0,0,1-1.43,4.1,1.34,1.34,0,0,0-.07.18A37.26,37.26,0,0,1,66,70.38c-1.37.4-2.76.75-4.15,1.08,0-.2,0-.4,0-.6-.07-1-.15-2-.21-3a47.41,47.41,0,0,0,7.13-2.2,6.08,6.08,0,0,0,1.91-1.29l-9.41-6.32a8.44,8.44,0,0,0-.5,2.32,59.09,59.09,0,0,0,.08,6.9c0,.13,0,.26,0,.38s0,.26,0,.39l.21,2.84c0,.24,0,.47.05.71l0,.38c0,.13,0,.26,0,.39,0,.47.07.94.1,1.4a36.32,36.32,0,0,1-3.42,1.85c0-.8-.09-1.62-.15-2.45l0-.39c0-.12,0-.25,0-.38,0-.41-.07-.83-.1-1.25-.05-.76-.11-1.53-.16-2.3l0-.38c0-.13,0-.26,0-.39a65.35,65.35,0,0,1-.12-7.91C57.7,52.58,65.9,47,70.4,44.47c-.93-3.21-.22-6.89.66-10.74l2.07.21,1.46.14a32.63,32.63,0,0,0-1.1,7.05l5.27-3.86c.09.67.16,1.35.21,2l-5.26,3.85a5.54,5.54,0,0,0,1,2.11,12,12,0,0,0,2.7,2.67h.47l.9-.66C78.7,47.49,78.67,47.7,78.63,47.92ZM76,46.49l-1-1.42,4.15-3v.13c0,.7,0,1.4-.06,2.09Z"/><path class="cls-1" d="M17.09,50.21a40.54,40.54,0,0,0-4.6-3,.47.47,0,0,1-.06.09,15.49,15.49,0,0,1-2.85,3,38.67,38.67,0,0,0,.61,4.8l7.09-4.77A1.33,1.33,0,0,1,17.09,50.21Z"/><path class="cls-1" d="M64.45,53.26l9.12,6.14c.26-.74.49-1.5.68-2.28l-8.11-5.45A22.91,22.91,0,0,0,64.45,53.26Z"/><path class="cls-1" d="M72,47.61a38.88,38.88,0,0,0-4.26,2.76l-.19.14,7.09,4.77a41.53,41.53,0,0,0,.59-4.53A15.47,15.47,0,0,1,72,47.61Z"/><path class="cls-1" d="M62,56.47l9.79,6.58a13,13,0,0,0,1.11-2L63.28,54.6A13.75,13.75,0,0,0,62,56.47Z"/></svg>