<svg id="Layer_1" data-name="Layer 1" xmlns="http://www.w3.org/2000/svg" viewBox="0 0 50 50"><defs><style>.cls-1{fill:#fff;}</style></defs><title>84 x 84</title><path class="cls-1" d="M25,49.08A24.35,24.35,0,1,1,49.34,24.73,24.37,24.37,0,0,1,25,49.08ZM25,1.43A23.31,23.31,0,1,0,48.3,24.73,23.33,23.33,0,0,0,25,1.43Z"/><path class="cls-1" d="M23.69,18.58c.08,0,.15,0,.15-.08s-.07-.08-.15-.08-.15,0-.15.08S23.6,18.58,23.69,18.58Z"/><path class="cls-1" d="M24.87,24.32l0-2a2.93,2.93,0,0,0-.38.17c-.41.22-1.15.73-.58,1.16C24.17,23.83,24.52,24.07,24.87,24.32Z"/><path class="cls-1" d="M23.85,32.26,23.74,32l-.07-.19L23.6,32a2.74,2.74,0,0,0-.11.28c0,.1-.08.22-.13.34l-.15.4h.91c-.05-.14-.09-.27-.14-.4S23.89,32.36,23.85,32.26Z"/><polygon class="cls-1" points="26.84 8.29 26.84 7.97 26.84 7.76 25.74 7.76 25.74 7.97 25.74 8.29 25.74 8.69 25.74 9.07 26.84 9.07 26.84 8.29"/><path class="cls-1" d="M24.94,37.33a2.48,2.48,0,0,0-.5.61A.9.9,0,0,0,24.59,39a3.76,3.76,0,0,0,.25.31l.14.19Z"/><path class="cls-1" d="M26.58,18.42c-.08,0-.15,0-.15.08s.07.08.15.08.16,0,.16-.08S26.67,18.42,26.58,18.42Z"/><path class="cls-1" d="M25.91,11h.93v-.52h0v-.37h-.31L26.4,10h.44V9.84h-.58l-.11-.12,0,0h.71V9.53H26l-.13-.15h1V9.22h-1.1v0l-.83-1L24.64,8l-.18-.21h-.93v.5l0,0,.67.78h-.7v.15h.82l.14.16h-1v.15h1.09l.14.16H23.53v.15h1.36L25,10h-1.5v.14h1.62Z"/><path class="cls-1" d="M26.76,27.82a.62.62,0,0,0-.22-.17.67.67,0,0,0-.3-.06.66.66,0,0,0-.32.07.69.69,0,0,0-.24.18.77.77,0,0,0-.14.25,1.67,1.67,0,0,0-.08.3h1.48a1.13,1.13,0,0,0-.05-.32A.75.75,0,0,0,26.76,27.82Z"/><path class="cls-1" d="M25,2.47A22.27,22.27,0,1,0,47.25,24.73,22.26,22.26,0,0,0,25,2.47ZM23.14,7.68a3.06,3.06,0,0,1,.36-.36,2.67,2.67,0,0,1,3.37,0,3.06,3.06,0,0,1,.36.36,2.64,2.64,0,0,1,0,3.4,3.06,3.06,0,0,1-.36.36,2.57,2.57,0,0,1-1.18.55,2.73,2.73,0,0,1-.5,0,3,3,0,0,1-.53,0,2.66,2.66,0,0,1-1.16-.55,3.06,3.06,0,0,1-.36-.36,2.64,2.64,0,0,1,0-3.4Zm4.22,12a.27.27,0,0,0-.06-.12.24.24,0,0,0-.26-.11,1.79,1.79,0,0,1-.88-.39c-.27-.2-.3-.36-.17-.34a.1.1,0,0,0-.06-.07c-.06,0,.1-.51.63-.52a1.57,1.57,0,0,1,1.12.38c.16.18.09.27.2.33a1.57,1.57,0,0,1,.54,1c.06.53-.52,1.23-1.45,1.61-.21.09-.43.18-.66.26-.3-.16-.61-.31-.91-.45l-.26-.12L24.82,21l-.16-8.87a3,3,0,0,0,.53,0,2.73,2.73,0,0,0,.5,0l-.21,9a7.45,7.45,0,0,0,.94-.5l.6-.4a.81.81,0,0,0,.35-.42A.49.49,0,0,0,27.36,19.71Zm-1.61,9.9a1.1,1.1,0,0,0,.75.22,2.22,2.22,0,0,0,.53,0,1.66,1.66,0,0,0,.37-.11l.11.65-.18.07-.26.06-.32.05a2,2,0,0,1-.35,0,2.15,2.15,0,0,1-.79-.13,1.48,1.48,0,0,1-.87-.94,2.3,2.3,0,0,1-.1-.71,2.11,2.11,0,0,1,.13-.79,1.64,1.64,0,0,1,.36-.57,1.57,1.57,0,0,1,.51-.34,1.51,1.51,0,0,1,.59-.11,1.4,1.4,0,0,1,1.1.43,1.88,1.88,0,0,1,.4,1.31v.15c0,.06,0,.1,0,.15H25.46A.92.92,0,0,0,25.75,29.61Zm-2.84-.68c.07-.2.14-.42.22-.64s.14-.44.2-.66.13-.43.18-.62h.81a18,18,0,0,1-.62,1.88c-.23.58-.46,1.1-.68,1.55h-.68c-.22-.45-.44-1-.67-1.55S21.23,27.68,21,27h.85c0,.19.1.4.16.62l.21.66c.07.22.14.44.22.64s.15.4.22.56Zm.78-6.9.28-.16.54.2.33.12.06,0,.05,0,.5.2,0,1.72-.1.08-.42.29-.46.34-.38-.24a2.64,2.64,0,0,1-1.21-1.1C22.57,22.84,23.16,22.33,23.69,22Zm.38,4.44h-.7A2.37,2.37,0,0,1,24.42,25c.54-.41,1.4-1,2-1.42s-.17-.94-.58-1.16-1.58-.6-2.51-1-1.5-1.08-1.44-1.61a1.49,1.49,0,0,1,.54-1c.1-.06,0-.15.19-.33a1.59,1.59,0,0,1,1.12-.38c.54,0,.69.49.64.52a.08.08,0,0,0-.06.07c.13,0,.09.14-.17.34a1.83,1.83,0,0,1-.88.39.25.25,0,0,0-.27.11.27.27,0,0,0-.06.12.24.24,0,0,0,0,.12c0,.19.21.32.34.42s.41.26.6.4c.49.35,1.77.82,2.73,1.38.4.23.9.56.93,1.07a1.43,1.43,0,0,1-.75,1.18c-.39.27-.8.5-1.19.75C24.68,25.61,24.16,26,24.07,26.47Zm1.18-1.07h0l.12-.08h0l.25-.17.2-.12h0a2.35,2.35,0,0,1,1,1.44h-.69c-.07-.34-.35-.63-.83-1l0,1H24.9v-.81l.36-.26Zm-8.59-9.65c1.41-.59,3.83-2,3.83-2-1.21.66-3.51,1.65-4.14,1.92A5.75,5.75,0,0,1,14,15.56c-.1-.09.13-.29.4-.48l5.9-3c-.83.33-5.22,2.36-5.95,2.7-1.17.07-3.38,0-2-.26a30.81,30.81,0,0,0,5.86-2.4c1.34-.67,2.22-1.53,3.74-1.4s1.53,1.65,1.56,2.08a1.5,1.5,0,0,0,.35.94,1.6,1.6,0,0,0,.74.12v.28h-.07l-.47,0-.14,0a.39.39,0,0,1-.25-.14,1.62,1.62,0,0,1-.33-1v-.08c0-.49-.11-1.8-1.47-1.91l-.3,0-.32,0a6.1,6.1,0,0,0-2,.81l-.12.06-.31.16c-.17.08-.33.17-.5.24l-.51.24.51-.21.48-.23,1.07-.53a4.07,4.07,0,0,1,1-.38,3.34,3.34,0,0,1,.7-.08l.29,0c1.27.11,1.35,1.3,1.39,1.82V13a1.87,1.87,0,0,0,.27.93c.18.26.36.26.66.3l.43,0,0,2.78c-.44.78-1.15,1-1.35.93s-.16-.21-.14-.35a7.48,7.48,0,0,0,.31-.72,4.76,4.76,0,0,1-.37.6c-.36.36-.76.58-1.12.42s-.22-.33-.17-.52a3.31,3.31,0,0,0,.48-.93,4.38,4.38,0,0,1-.6.84c-.48.32-1.26.59-1.51.36s.08-.65.28-.94a7.46,7.46,0,0,0,1-1.1,8,8,0,0,1-1.07,1c-.67.36-1.72.75-2,.51s0-.48.21-.73c.87-.57,1.89-1.37,2.13-1.56-.39.3-1.76,1.14-2.31,1.47-.8.24-2.14.35-2.34.11S16.28,16,16.66,15.75Zm2.2,18.51h-.72V32.91H16.93v1.35h-.72V31.07h.72v1.22h1.21V31.07h.72Zm-.22-5.49c-.19-.29-.39-.57-.6-.85s-.39-.51-.58-.73v3.25h-.81V25.9h.68c.17.18.36.4.56.65l.61.78c.2.27.4.54.59.82s.36.52.5.76v-3h.82v4.54h-.7c-.15-.25-.31-.52-.5-.81S18.84,29.06,18.64,28.77Zm3.22,5.49H19.59V31.07h2.16v.6H20.31v.63h1.28v.59H20.31v.77h1.55Zm1.06-.34c0,.12-.07.23-.11.34h-.75c.12-.34.24-.66.35-.95s.21-.57.31-.83l.31-.73c.1-.23.2-.46.31-.68H24c.11.22.21.45.31.68s.21.48.31.73l.32.83c.11.29.22.61.34.95h-.77c0-.11-.07-.22-.11-.34s-.09-.23-.13-.35H23.05C23,33.69,23,33.8,22.92,33.92Zm1.41,3.32.34-.35.27.25,0,0,.05,0,.26.26,0,1.86a3.07,3.07,0,0,0-.27.36h0c0,.06-.07.11-.1.16A5,5,0,0,1,24,38.79C23.81,38.41,23.61,38,24.33,37.24Zm1.14,4.15a.24.24,0,0,1-.06.08l-.05.05a1.38,1.38,0,0,0,.12-.72,1.49,1.49,0,0,0-.24-.51l0,2.18-.09.26L25,42.47l0-1.85a1.9,1.9,0,0,1,.21-.35h0l0,0,.13-.15.06.1a2.5,2.5,0,0,1,.15.38A1.07,1.07,0,0,1,25.47,41.39Zm.85-2.6c-.15.38-.83.9-1.21,1.4a1.83,1.83,0,0,0-.42,1.29c0,.16.14.53.13.54s-.06-.08-.11-.17a1.37,1.37,0,0,1-.13-.49,1.13,1.13,0,0,1,0-.26,1.94,1.94,0,0,1,.09-.48,2.82,2.82,0,0,1,.42-.83c.16-.23.33-.43.5-.65l.09-.12a.9.9,0,0,0,.16-1.08,8.42,8.42,0,0,0-1.4-1.43A3,3,0,0,1,23.37,35v-.13h.7a.5.5,0,0,0,0,.12c0,.55,1.18,1.52,1.9,2.3S26.46,38.41,26.32,38.79Zm-.48-2.28-.23.2-.23-.24-.06,0h0l-.08-.08L24.92,36l0-1.2h.46l0,1.41c.49-.49.91-1,.89-1.29a.49.49,0,0,0,0-.12h.69a.29.29,0,0,1,0,.13A3,3,0,0,1,25.84,36.51Zm2-2.25H25.71V31.07h.72v2.58h1.41Zm2.47-2.58h-1v2.58h-.72V31.68h-1v-.61h2.64Zm-.89-1.16a3,3,0,0,1-.73-.07,2,2,0,0,1-.38-.13l.14-.66a2.28,2.28,0,0,0,.42.14,2.31,2.31,0,0,0,.56.07,1.05,1.05,0,0,0,.46-.08.28.28,0,0,0,.14-.26.33.33,0,0,0-.15-.28,3.14,3.14,0,0,0-.51-.24,3,3,0,0,1-.4-.17,1.41,1.41,0,0,1-.31-.21.63.63,0,0,1-.2-.28.86.86,0,0,1-.08-.41.87.87,0,0,1,.35-.74,1.48,1.48,0,0,1,.94-.27,2.78,2.78,0,0,1,.58.05,2.52,2.52,0,0,1,.41.11l-.15.64a1.91,1.91,0,0,0-.8-.16.75.75,0,0,0-.39.09.26.26,0,0,0-.15.25.4.4,0,0,0,0,.15.27.27,0,0,0,.1.12.79.79,0,0,0,.19.11l.28.12a3.89,3.89,0,0,1,.48.2,1.74,1.74,0,0,1,.33.23.88.88,0,0,1,.18.29,1.16,1.16,0,0,1,.06.4.85.85,0,0,1-.36.74A1.8,1.8,0,0,1,29.42,30.52Zm4,3.74H32.7V32.91H31.49v1.35h-.72V31.07h.72v1.22H32.7V31.07h.72Zm-.11-3.81a2,2,0,0,1-.52.07,1.72,1.72,0,0,1-.61-.1.84.84,0,0,1-.39-.29,1,1,0,0,1-.21-.45,2.8,2.8,0,0,1-.06-.61v-3l.8-.14v1h1.22v.66H32.32v1.4a1,1,0,0,0,.13.59.53.53,0,0,0,.44.17,1.51,1.51,0,0,0,.39,0l.26-.09.13.63A2.5,2.5,0,0,1,33.31,30.45ZM36,14.81c-.73-.34-5.13-2.37-6-2.7l5.9,3c.26.19.5.39.4.48a5.82,5.82,0,0,1-2.35.11c-.62-.27-2.93-1.26-4.13-1.92,0,0,2.41,1.41,3.82,2,.38.22.79.51.64.69s-1.53.14-2.33-.11c-.55-.33-1.93-1.17-2.31-1.47.23.19,1.25,1,2.12,1.56.21.25.42.57.21.73s-1.37-.15-2-.51a8,8,0,0,1-1.07-1,8.23,8.23,0,0,0,1,1.1c.2.29.48.77.28.94s-1,0-1.51-.36a5.46,5.46,0,0,1-.6-.84,3.31,3.31,0,0,0,.48.93c.05.19.06.42-.17.52s-.76-.06-1.12-.42a6.3,6.3,0,0,1-.37-.6,7.48,7.48,0,0,0,.31.72c0,.14,0,.29-.14.36s-.95-.17-1.39-1l.06-2.71.45,0c.31,0,.48,0,.66-.3a1.87,1.87,0,0,0,.27-.93V13c0-.52.11-1.71,1.38-1.82l.29,0a3.27,3.27,0,0,1,.7.08,3.94,3.94,0,0,1,1,.38l1.07.53.48.23.52.21-.52-.24c-.17-.07-.33-.16-.49-.24a3.18,3.18,0,0,1-.32-.16l-.12-.06a6,6,0,0,0-2-.81l-.32,0-.3,0c-1.35.12-1.44,1.42-1.47,1.91V13a1.69,1.69,0,0,1-.32,1,.41.41,0,0,1-.25.14l-.15,0a3.59,3.59,0,0,1-.47,0h-.09v-.28a1.54,1.54,0,0,0,.76-.12,1.44,1.44,0,0,0,.35-.94c0-.43.05-1.95,1.57-2.08s2.39.73,3.73,1.4A30.43,30.43,0,0,0,38,14.55C39.39,14.84,37.18,14.88,36,14.81Z"/><path class="cls-1" d="M25.39,25.31l-.12.08.12-.08Z"/><path class="cls-1" d="M25.25,25.4Z"/></svg>