<svg id="Layer_1" data-name="Layer 1" xmlns="http://www.w3.org/2000/svg" viewBox="0 0 75.48 50"><defs><style>.cls-1{fill:#fff;}</style></defs><title>84 x 84</title><path class="cls-1" d="M13.9,15.74a3.66,3.66,0,0,0-.83-2,2.82,2.82,0,0,0-2-.83h-4v4H13.9Z"/><path class="cls-1" d="M39.45,12.94h-3l-5,5.84H26.08l.82-.9h1.68V15.73a2.85,2.85,0,0,0-2.84-2.79H21.66l-4.09,4.94H3.36v.9h13.4l-.79.93H3.36v.89h11.9l-.73.91H3.36v.9h10.4l-.79.91H3.36v.9H7.05v9.27h4.74a2.87,2.87,0,0,0,1.73-.72l8.53-9.45h5.54l-.78.91H21.66v9.26h4.57a2.81,2.81,0,0,0,1.91-.79L42.31,16.06V15.8A2.86,2.86,0,0,0,39.45,12.94ZM28.37,22.41H22.88l.8-.9h5.46Zm1.55-1.81H24.35l.81-.89h5.53Z"/><path class="cls-1" d="M43.81,28.32a4.15,4.15,0,0,1-2.94,1.18,3.85,3.85,0,0,1-2.78-1A3.62,3.62,0,0,1,37,25.68a3.6,3.6,0,0,1,1.12-2.78,3.75,3.75,0,0,1,2.64-1,3.86,3.86,0,0,1,2.6.92,3.18,3.18,0,0,1,1.06,2.53v1.1H39a1.49,1.49,0,0,0,.63,1,2,2,0,0,0,1.21.39,2.4,2.4,0,0,0,1.79-.73Zm-2-4.39a1.56,1.56,0,0,0-1-.35,1.84,1.84,0,0,0-1.12.37,1.38,1.38,0,0,0-.59,1h3.24A1.46,1.46,0,0,0,41.83,23.93Z"/><path class="cls-1" d="M51.62,28.32a4.15,4.15,0,0,1-2.94,1.18,3.85,3.85,0,0,1-2.78-1,3.62,3.62,0,0,1-1.1-2.78,3.6,3.6,0,0,1,1.12-2.78,3.75,3.75,0,0,1,2.64-1,3.86,3.86,0,0,1,2.6.92,3.18,3.18,0,0,1,1.06,2.53v1.1H46.83a1.49,1.49,0,0,0,.63,1,2,2,0,0,0,1.21.39,2.4,2.4,0,0,0,1.79-.73Zm-2-4.39a1.56,1.56,0,0,0-1-.35,1.84,1.84,0,0,0-1.12.37,1.38,1.38,0,0,0-.59,1h3.24A1.46,1.46,0,0,0,49.64,23.93Z"/><path class="cls-1" d="M55.08,29.39H53V19.19h2.06v5.24L57.38,22H60l-2.82,3,2.93,4.41H57.64l-1.89-2.83-.67.7Z"/><path class="cls-1" d="M62.57,29.39H60.51V19.19h2.06Z"/><path class="cls-1" d="M65.12,32.31a3,3,0,0,1-2.05-.88L64,29.9a1.56,1.56,0,0,0,1.08.51.62.62,0,0,0,.49-.28,1,1,0,0,0,.21-.6c0-.21-1-2.72-2.86-7.54h2.2l1.8,4.61L68.72,22h2.2l-3.44,8.72a2.41,2.41,0,0,1-.94,1.18A2.54,2.54,0,0,1,65.12,32.31Z"/></svg>