<svg id="Layer_1" data-name="Layer 1" xmlns="http://www.w3.org/2000/svg" viewBox="0 0 84 84"><defs><style>.cls-1{fill:#fff;}</style></defs><title>84 x 84</title><path class="cls-1" d="M42,1a40.8,40.8,0,1,0,40.8,40.8A40.8,40.8,0,0,0,42,1Zm9.56,28.81V14.13H70.1V36.2H51.52ZM70.1,41.46H53.55L55.74,44H70.1v2.75h-12l.34.4,1.85,2.09H70.1V52H62.71l2.23,2.51H70.1v5.83h0v.38h0v8.73H54.43L41.68,54.49H14.37V52H39.53l-2.34-2.74H14.37V46.72H35L32.7,44H14.37V41.46H30.55l-2.34-2.74H14.37V36.2h11.7L14.37,22.51V14.13H30l21.48,25v-.38H70.1Z"/></svg>