<svg id="Layer_1" data-name="Layer 1" xmlns="http://www.w3.org/2000/svg" viewBox="0 0 84 84"><defs><style>.cls-1{fill:#fff;}</style></defs><title>84 x 84</title><path class="cls-1" d="M44.39,1.25c-.61,0-1.22-.05-1.84-.05h-.13a40.8,40.8,0,0,0,0,81.6h.13c.62,0,1.23,0,1.84,0a40.8,40.8,0,0,0,0-81.5ZM70.56,14.37ZM65.29,68.75A35.3,35.3,0,0,1,27.81,74.3a1.66,1.66,0,0,1-.45-2.68L39.6,59.38a1.69,1.69,0,0,0,0-2.36l-1.85-1.85a1.71,1.71,0,0,0-2.36,0L27.1,63.46a1.63,1.63,0,0,1-2.8-1.15v-7.9a1.59,1.59,0,0,1,.51-1.15L29.21,49a1.69,1.69,0,0,0,0-2.36l-1.85-1.85a1.71,1.71,0,0,0-2.36,0L19,50.84A1.59,1.59,0,0,0,18.44,52V64.1a1.63,1.63,0,0,1-2.87,1.08A35.16,35.16,0,0,1,7,42.11,35.62,35.62,0,0,1,10,27.64a1.66,1.66,0,0,1,2.68-.45L26.15,40.64l1.53,1.53,4.14,4.14,1.47,1.47,3.31,3.31,1.47,1.47,4.14,4.14,1.47,1.47L51,65.37a1.57,1.57,0,0,0,1.14.51H64.2A1.63,1.63,0,0,1,65.29,68.75Zm5.27.92h0l0,0Zm1.17-12.78-19-19.1-.11.11L48.46,42,47,43.51l-2.16,2.17a1.68,1.68,0,0,0,0,2.35l1.84,1.85a1.69,1.69,0,0,0,2.36,0l2.17-2.17,1.47-1.46,0,0L63.57,57.15A1.63,1.63,0,0,1,62.42,60H54.51a1.59,1.59,0,0,1-1.14-.51L47.82,53.9l-1.46-1.47-4.15-4.14-1.46-1.47-3.32-3.31L36,42,31.82,37.9l-1.46-1.47L20.92,27a1.63,1.63,0,0,1,1.15-2.81h7.84a1.59,1.59,0,0,1,1.15.51l4.33,4.4a1.69,1.69,0,0,0,2.36,0l1.85-1.85a1.63,1.63,0,0,0-.07-2.36l-6.05-6.05a1.59,1.59,0,0,0-1.15-.51h-12a1.63,1.63,0,0,1-1.08-2.87A35.3,35.3,0,0,1,56.68,9.91a1.67,1.67,0,0,1,.45,2.68L43.61,26l-1.46,1.47L38,31.65l-1.46,1.47-2.17,2.16a1.69,1.69,0,0,0,0,2.36l1.85,1.85a1.69,1.69,0,0,0,2.36,0l2.17-2.17,1.53-1.46,4.14-4.15,1.47-1.46,9.43-9.44A1.63,1.63,0,0,1,60.12,22v7.78a1.59,1.59,0,0,1-.51,1.15l-4.39,4.39a1.86,1.86,0,0,0,.24,2.16l1.85,1.85a1.43,1.43,0,0,0,2,.33l6.21-6.38A1.57,1.57,0,0,0,66,32.1v-12A1.63,1.63,0,0,1,68.86,19,35.32,35.32,0,0,1,74.4,56.45,1.65,1.65,0,0,1,71.73,56.89Z"/></svg>