<svg id="Layer_1" data-name="Layer 1" xmlns="http://www.w3.org/2000/svg" viewBox="0 0 50 50"><defs><style>.cls-1{fill:#fff;}</style></defs><title>84 x 84</title><path class="cls-1" d="M15,19.67v1l4,4.73H15v.86h4.77l.81,1H15v.87h6.32l.81.94H15v.87h7.87l.81.95H15v.86h9.42l4.39,5.15h5.41v-3h0v-.13h0v-2H32.48l-.77-.86h2.55v-.95H30.87l-.63-.72L30.12,29h4.14v-.94h-5l-.75-.88h5.71v-1H27.85v.14l-5.77-6.71-1.64-1.91H15Z"/><polygon class="cls-1" points="28.25 19.55 28.25 22.82 28.25 24.9 34.26 24.9 34.26 19.55 34.26 17.76 28.25 17.76 28.25 19.55"/><path class="cls-1" d="M35.9,3.46c0,.11,0,.22,0,.33l0,.9c1.2.24,2.35.5,3.4.82A23.93,23.93,0,0,0,35.9,3.46Z"/><path class="cls-1" d="M44.64,16.28l1,.1,1.33.14c.08-.41.14-.81.2-1.22a23.29,23.29,0,0,0-2.28-4.05A13.85,13.85,0,0,1,44.64,16.28Z"/><path class="cls-1" d="M43.55,19l.25,0L44,19l1.29.13,1,.1.24,0,.25,0c.59.06,1.15.14,1.7.24a21.87,21.87,0,0,0-.7-2.43l-.51-.06-.24,0-.25,0-1.29-.13-1-.1-.25,0-.25,0A13.85,13.85,0,0,1,39,15.39l5.8-4.24c-.22-.31-.45-.62-.69-.92L38,14.72a6.91,6.91,0,0,1-1.07-1l6.27-4.6c-.25-.29-.51-.58-.78-.85l-6.15,4.5a6.42,6.42,0,0,1-.52-1.44l5.6-4.11-.89-.77L35.48,10a31.66,31.66,0,0,1-.12-4.95V4.84a2,2,0,0,0,0-.25l0-.81c0-.19,0-.38,0-.56-.74-.35-1.5-.67-2.27-1,0,.48,0,1,0,1.43,0,.15,0,.31,0,.47s0,.16,0,.24a2,2,0,0,1,0,.25c-.12,3.94-.11,7.58,1.64,10C37,17.79,40.36,18.58,43.55,19Z"/><path class="cls-1" d="M49.16,24.91l-2.71,2,.68.93,2-1.46c0-.45,0-.9,0-1.36Z"/><path class="cls-1" d="M17.56,4.07A33.83,33.83,0,0,0,23,2.65a6,6,0,0,0,2.09-1.31,6.16,6.16,0,0,0,2.09,1.31A34.11,34.11,0,0,0,32.6,4.07c0-.13,0-.26,0-.39,0-.52,0-1.05,0-1.58A24.54,24.54,0,0,0,25.55.87h-.94A24.18,24.18,0,0,0,17.5,2.05c0,.55,0,1.09.05,1.63C17.55,3.81,17.56,3.94,17.56,4.07Z"/><path class="cls-1" d="M14.27,3.79c0-.13,0-.27,0-.41a23.92,23.92,0,0,0-3.65,2.23,30.14,30.14,0,0,1,3.69-.92Z"/><path class="cls-1" d="M3.57,19.28l.25,0,1-.1L6.12,19l.24,0,.25,0c3.2-.39,6.52-1.18,8.84-4.34,1.75-2.39,1.76-6,1.64-10,0-.08,0-.16,0-.25a1.93,1.93,0,0,0,0-.24c0-.16,0-.32,0-.47,0-.49,0-1,0-1.48-.77.27-1.53.58-2.27.92,0,.21,0,.43,0,.64l0,.81c0,.09,0,.17,0,.25a2,2,0,0,0,0,.25A32.85,32.85,0,0,1,14.68,10l-5-3.68c-.3.25-.6.5-.89.77l5.7,4.17a6.42,6.42,0,0,1-.53,1.44L7.69,8.17c-.27.27-.53.56-.79.84l6.38,4.68a7.44,7.44,0,0,1-1.08,1L6,10.15l-.58.77-.1.15A23.3,23.3,0,0,0,3,15c.06.51.14,1,.23,1.51l1.33-.14,1-.1a13.89,13.89,0,0,1-.19-5.16l5.84,4.27a13.8,13.8,0,0,1-5.06,1.33l-.25,0-.24,0-1,.1L3.32,17l-.24,0-.25,0-.68.08a25.23,25.23,0,0,0-.7,2.44c.6-.11,1.23-.2,1.87-.27Z"/><path class="cls-1" d="M3.71,26.89.84,24.79V25c0,.42,0,.83,0,1.24L3,27.82Z"/><path class="cls-1" d="M6.73,26.23c.5-2,0-4.32-.5-6.72l-1.35.13-.95.1a21.7,21.7,0,0,1,.72,4.59L1.06,21.71C1,22.14,1,22.58.92,23L4.5,25.65A3.77,3.77,0,0,1,3.89,27a8.13,8.13,0,0,1-1.62,1.64h-.6l-.62-.45q.07.57.18,1.14l.09.48c.1.47.21.94.33,1.4l.12.43A24.1,24.1,0,0,0,8.86,43c1.22.4,2.48.73,3.74,1l0-.39c0-.64.1-1.29.14-1.93a31.51,31.51,0,0,1-4.65-1.43,4.12,4.12,0,0,1-1.24-.84L13,35.27a5.29,5.29,0,0,1,.32,1.52,37.72,37.72,0,0,1-.05,4.5c0,.08,0,.16,0,.24s0,.17,0,.25c0,.62-.08,1.24-.13,1.86l0,.46c0,.08,0,.17,0,.25s0,.17,0,.25L13,45.93a24.82,24.82,0,0,0,2.24,1.14q0-1,.12-2c0-.08,0-.17,0-.25s0-.16,0-.25l.06-.81c0-.5.07-1,.11-1.5a2,2,0,0,1,0-.25c0-.09,0-.17,0-.25a40.44,40.44,0,0,0,.07-5.16C15.31,31.51,9.58,27.77,6.73,26.23Zm-1,2.15,0-.05a23.76,23.76,0,0,1,3,1.92l.12.09-4.62,3.1a28.56,28.56,0,0,1-.4-3.13A9.8,9.8,0,0,0,5.74,28.38Zm4.08,2.71c.38.33.75.67,1.1,1L5,36.13a14.83,14.83,0,0,1-.44-1.48ZM6.14,38.51a8.42,8.42,0,0,1-.72-1.29L11.69,33a9.72,9.72,0,0,1,.83,1.22Z"/><path class="cls-1" d="M48,28.76A7.64,7.64,0,0,1,46.28,27a3.79,3.79,0,0,1-.62-1.37l3.43-2.51c0-.45-.08-.89-.14-1.32l-3.43,2.51a21.08,21.08,0,0,1,.72-4.59l-1-.1-1.35-.13c-.57,2.51-1,4.9-.42,7-2.93,1.63-8.28,5.28-8.58,10.25A40.31,40.31,0,0,0,35,41.91c0,.08,0,.17,0,.25s0,.17,0,.25c0,.5.07,1,.11,1.5l.06.82c0,.08,0,.16,0,.24a2,2,0,0,0,0,.25c0,.54.07,1.08.09,1.6a22.72,22.72,0,0,0,2.23-1.2l-.06-.92c0-.08,0-.16,0-.25a2.29,2.29,0,0,0,0-.25l0-.46c0-.61-.09-1.23-.13-1.85,0-.09,0-.17,0-.25s0-.17,0-.25a37.68,37.68,0,0,1-.05-4.5,5.22,5.22,0,0,1,.32-1.51l6.13,4.12a4,4,0,0,1-1.24.84,31.51,31.51,0,0,1-4.65,1.43c0,.65.09,1.29.14,1.93l0,.39c.9-.21,1.81-.44,2.7-.7a24.19,24.19,0,0,0,6.62-9,.37.37,0,0,0,0-.11,24.79,24.79,0,0,0,.93-2.67c.16-.55.29-1.11.41-1.67,0-.22.09-.44.13-.66s.05-.33.08-.5l.06-.42-.58.43Zm-3.63,9.85L38,34.32a9,9,0,0,1,.83-1.21l6.27,4.21A8,8,0,0,1,44.41,38.61Zm1.16-2.38-5.94-4a13.42,13.42,0,0,1,1.1-1L46,34.75A14.83,14.83,0,0,1,45.57,36.23Zm.71-2.68-4.62-3.11.12-.09a26,26,0,0,1,2.78-1.8,10.43,10.43,0,0,0,2.1,2.05A25.14,25.14,0,0,1,46.28,33.55Z"/><path class="cls-1" d="M34.65,44c0-.48-.07-1-.1-1.43-3.83.9-7.31,1.95-9.24,4.76l0-.05c-1.91-2.85-5.42-3.9-9.28-4.81,0,.48-.06.95-.1,1.42l-.06.9a23.66,23.66,0,0,1,4.92,1.62l-2.65,1.78c.49.14,1,.27,1.48.39L21.85,47A5.89,5.89,0,0,1,23,48l-1.32.89c.59.08,1.19.14,1.79.17l.27,0,.59,0H25c.42,0,.85,0,1.26,0l.64,0h0c.59-.05,1.18-.11,1.76-.2l-1.1-.74a5.85,5.85,0,0,1,1.14-1l2,1.35c.5-.12,1-.25,1.46-.4l-2.37-1.6a23.76,23.76,0,0,1,4.93-1.62C34.69,44.54,34.67,44.25,34.65,44Z"/></svg>