<svg xmlns="http://www.w3.org/2000/svg" width="40" height="40" viewBox="0 0 40 40">
    <path fill="#ffffff" fill-rule="evenodd" d="M10.759 26.982V13.79l9.103 7.794a.878.878 0 0 0 1.143 0l9.103-7.794v13.192H10.759zM28.607 12.76l-8.174 6.999-8.174-6.999h16.348zm3.207-1.142c-.005-.014.004-.028-.002-.042-.002-.005-.007-.007-.009-.012a.886.886 0 0 0-.281-.366c-.028-.021-.056-.037-.086-.056a.86.86 0 0 0-.449-.141H9.88a.86.86 0 0 0-.448.14c-.03.02-.058.036-.086.057a.886.886 0 0 0-.282.366c-.001.005-.007.007-.008.012-.006.014.003.028-.002.042A.858.858 0 0 0 9 11.88v15.983c0 .485.394.88.88.88h21.107a.88.88 0 0 0 .88-.88V11.879a.858.858 0 0 0-.053-.262z"/>
</svg>