<?xml version="1.0" standalone="no"?>
<!DOCTYPE svg PUBLIC "-//W3C//DTD SVG 20010904//EN"
 "http://www.w3.org/TR/2001/REC-SVG-20010904/DTD/svg10.dtd">
<svg version="1.0" xmlns="http://www.w3.org/2000/svg"
 width="933.000000pt" height="382.000000pt" viewBox="0 0 933.000000 382.000000"
 preserveAspectRatio="xMidYMid meet">
<metadata>
Created by potrace 1.15, written by Peter Selinger 2001-2017
</metadata>
<g transform="translate(0.000000,382.000000) scale(0.100000,-0.100000)"
fill="#1A75BC" stroke="none">
<path d="M1509 2960 c-163 -20 -350 -96 -464 -188 -45 -35 -61 -55 -63 -77 -6
-50 12 -55 213 -55 l181 0 92 -94 c51 -51 92 -100 92 -108 0 -18 -71 -88 -90
-88 -8 0 -47 33 -87 73 l-73 72 -113 3 c-138 4 -167 -5 -167 -50 0 -30 39 -72
453 -486 l453 -452 122 0 c137 0 162 7 162 48 0 22 -31 58 -158 185 l-157 157
-50 -51 c-74 -75 -78 -76 -125 -33 -23 21 -40 45 -40 58 0 13 39 59 107 128
l108 108 265 -265 c175 -174 273 -265 286 -265 29 0 48 25 73 94 40 108 54
194 53 336 0 113 -4 151 -26 235 -49 188 -175 396 -244 403 -46 5 -52 -20 -52
-221 l0 -172 -93 -93 c-51 -50 -97 -92 -103 -92 -17 0 -84 75 -84 95 0 10 32
51 70 91 l70 72 0 114 c0 123 -12 158 -53 158 -15 0 -103 -81 -287 -265 -178
-177 -273 -265 -287 -265 -19 0 -93 70 -93 87 0 4 146 154 325 333 216 217
325 333 325 346 0 28 -25 48 -90 71 -131 48 -318 70 -451 53z"/>
<path d="M763 2422 c-39 -25 -91 -216 -100 -363 -13 -232 51 -446 191 -637 41
-55 50 -62 80 -62 22 0 36 6 40 16 3 9 6 95 6 192 l0 176 98 98 c54 54 104 98
111 98 17 0 91 -73 91 -90 0 -7 -34 -47 -75 -89 l-75 -77 0 -127 c0 -119 1
-127 22 -141 12 -9 29 -16 37 -16 8 0 71 56 141 125 69 69 133 125 142 125 9
0 30 -11 47 -25 60 -51 60 -50 -138 -249 -181 -182 -196 -203 -168 -239 17
-23 176 -73 276 -88 108 -15 271 -6 376 21 154 39 388 172 402 229 13 52 2 56
-200 59 l-186 2 -539 535 c-297 294 -546 535 -553 535 -8 0 -19 -4 -26 -8z"/>
<path d="M4465 2306 c-96 -45 -154 -137 -163 -256 -9 -136 38 -247 131 -304
41 -25 61 -30 131 -34 58 -3 100 1 140 12 54 16 56 18 50 44 -10 41 -12 42
-47 27 -191 -79 -353 44 -334 252 16 169 147 257 302 205 33 -11 61 -19 62
-18 2 1 6 16 9 33 6 29 4 31 -42 47 -72 24 -178 21 -239 -8z"/>
<path d="M2928 2313 l-28 -4 0 -289 0 -289 45 -7 c85 -12 225 0 283 26 102 44
162 145 162 270 0 125 -60 226 -162 271 -44 19 -72 23 -163 25 -60 1 -122 0
-137 -3z m270 -85 c62 -31 99 -81 114 -151 24 -114 -20 -218 -113 -264 -50
-25 -140 -39 -193 -29 l-36 7 0 229 c0 263 -10 241 108 235 51 -2 88 -11 120
-27z"/>
<path d="M3680 2020 l0 -300 190 0 190 0 0 30 0 30 -155 0 -155 0 0 115 0 115
130 0 130 0 0 30 0 30 -130 0 -130 0 0 95 0 95 145 0 145 0 0 30 0 30 -180 0
-180 0 0 -300z"/>
<path d="M5020 2020 l0 -300 190 0 190 0 0 30 0 30 -155 0 -155 0 0 115 0 115
130 0 130 0 0 30 0 30 -130 0 -130 0 0 95 0 95 145 0 145 0 0 30 0 30 -180 0
-180 0 0 -300z"/>
<path d="M5670 2020 l0 -300 35 0 35 0 0 246 0 246 43 -54 c58 -70 229 -317
268 -384 26 -46 35 -54 60 -54 l29 0 0 300 0 300 -30 0 -30 0 0 -236 0 -236
-87 130 c-49 72 -126 178 -172 236 -76 97 -86 106 -117 106 l-34 0 0 -300z"/>
<path d="M6400 2290 l0 -30 95 0 95 0 0 -270 0 -270 35 0 35 0 0 270 0 270
100 0 100 0 0 30 0 30 -230 0 -230 0 0 -30z"/>
<path d="M7138 2313 l-28 -4 0 -295 0 -294 35 0 35 0 0 115 0 115 74 0 75 0
56 -77 c32 -43 67 -95 79 -115 18 -33 26 -38 59 -38 20 0 37 2 37 5 0 10 -66
112 -112 174 l-48 65 28 12 c15 6 42 28 60 48 29 33 32 43 32 102 0 140 -77
196 -264 193 -50 -1 -103 -4 -118 -6z m251 -77 c43 -23 61 -54 61 -106 -1 -83
-40 -109 -176 -117 l-94 -6 0 121 c0 117 1 121 23 126 40 9 155 -2 186 -18z"/>
<path d="M7960 2173 c-66 -155 -170 -426 -170 -443 0 -6 15 -10 34 -10 27 0
36 5 42 23 3 12 15 46 26 75 l19 52 147 0 147 0 25 -72 c25 -72 26 -73 63 -76
20 -2 37 -1 37 2 0 14 -126 338 -178 457 -59 133 -59 134 -94 137 l-35 3 -63
-148z m160 -88 c29 -71 55 -136 57 -142 4 -10 -23 -13 -116 -13 -74 0 -121 4
-121 10 0 23 113 291 120 283 4 -4 31 -66 60 -138z"/>
<path d="M8570 2020 l0 -300 180 0 180 0 0 30 0 30 -145 0 -145 0 0 270 0 270
-35 0 -35 0 0 -300z"/>
</g>
</svg>
