<?xml version="1.0" standalone="no"?>
<!DOCTYPE svg PUBLIC "-//W3C//DTD SVG 20010904//EN"
 "http://www.w3.org/TR/2001/REC-SVG-20010904/DTD/svg10.dtd">
<svg version="1.0" xmlns="http://www.w3.org/2000/svg"
 width="287.000000pt" height="61.000000pt" viewBox="0 0 287.000000 61.000000"
 preserveAspectRatio="xMidYMid meet">
<metadata>
Created by potrace 1.15, written by Peter Selinger 2001-2017
</metadata>
<g transform="translate(0.000000,61.000000) scale(0.100000,-0.100000)"
fill="#000000" stroke="none">
<path d="M200 533 c-75 -39 -76 -53 -2 -53 53 0 61 -3 86 -31 22 -24 25 -33
15 -45 -15 -19 -21 -18 -47 6 -14 13 -35 20 -62 20 -22 0 -40 -2 -40 -4 0 -3
60 -63 133 -135 122 -120 135 -131 170 -131 20 0 37 3 37 7 0 4 -16 24 -37 45
-30 31 -34 40 -23 53 7 8 15 15 19 15 4 0 30 -23 59 -50 29 -28 57 -48 62 -45
15 9 32 106 26 148 -8 50 -54 137 -73 137 -9 0 -13 -15 -13 -53 0 -52 -1 -53
-70 -122 -66 -66 -71 -68 -87 -52 -16 16 -14 20 45 80 54 55 62 67 62 101 0
21 -4 36 -9 34 -5 -1 -43 -36 -85 -75 -42 -40 -80 -73 -85 -73 -5 0 -14 7 -22
16 -11 13 1 28 87 109 116 110 116 117 -8 123 -76 3 -88 1 -138 -25z"/>
<path d="M60 374 c-19 -57 -7 -155 24 -209 15 -25 31 -45 36 -45 6 0 10 24 10
53 0 45 4 57 28 80 31 30 44 33 61 14 8 -11 5 -19 -14 -37 -17 -16 -25 -34
-25 -56 0 -46 12 -48 50 -9 37 38 51 42 69 21 9 -11 1 -25 -39 -67 -28 -29
-48 -59 -46 -65 6 -16 104 -28 158 -20 47 7 119 44 126 64 2 8 -11 12 -48 12
l-52 0 -158 150 c-86 83 -160 150 -163 150 -3 0 -11 -16 -17 -36z"/>
</g>
</svg>
