<svg height="732" viewBox="0 0 961 732" width="961" xmlns="http://www.w3.org/2000/svg"><g fill="none" fill-rule="evenodd" stroke="#3d3d3d" transform="translate(.5099 1.0099)"><path d="m216.466106 109.50436c-116.8508473-2.444942-214.09341405 90.438859-216.35804088 207.314867-3.62849872 187.155719 82.63864628 398.000837 483.29774588 412.312214 729.427159 26.054896 514.507927-892.414221 65.128628-703.5091188-155.048254 65.1769596-260.47555 85.3795838-332.068333 83.8820378z"/><path d="m223.040916 115.725219c-113.93383-2.382736-208.7505521 88.159757-210.9596002 202.089034-3.53837358 182.4397 80.5778032 387.969465 471.2376232 401.92121 711.223581 25.399375 501.666738-869.920653 63.501893-685.7770725-151.177423 63.5336488-253.974594 83.2264425-323.779916 81.7668285z"/><path d="m229.614075 122.011588c-111.018228-2.323459-203.4060392 85.931992-205.5595069 196.985817-3.4482458 177.831525 78.5154029 378.16912 459.1771609 391.769596 693.019471 24.756078 488.826678-847.949961 61.876605-668.4575381-147.309481 61.9299151-247.474951 81.1246811-315.494259 79.7021251z"/><path d="m236.188534 128.233251c-108.104063-2.261256-198.0644096 83.652981-200.1607971 191.761692-3.3566175 173.112703 76.4514591 368.138158 447.1164401 381.37602 674.816483 24.10208 475.986344-825.458806 60.251284-650.7247144-143.439956 60.2851724-240.975169 78.9716274-307.206927 77.5870024z"/><path d="m242.334065 134.94828c-105.18551-2.200475-192.7214797 81.426578-194.7607891 186.655164-3.2664911 168.505737 74.3905901 358.340198 435.0546691 371.226769 656.614165 23.458744 463.14799-803.486749 58.626024-633.4056016-139.569076 58.6843366-234.474132 76.8712346-298.919904 75.5236686z"/><path d="m248.908841 141.169178c-102.271471-2.139769-187.3785829 79.147479-189.3623126 181.430834-3.1763655 163.78973 72.3282346 348.307345 422.9944696 360.834283 638.410472 22.801727 450.306713-780.993211 57.000772-615.6735785-135.701216 57.0395285-227.974629 74.7180965-290.632929 73.4084615z"/><path d="m255.578315 147.455724c-99.404909-2.078997-182.1309114 76.919889-184.0585714 176.328021-3.086355 159.180414 70.3026364 338.509264 411.1477354 350.681964 620.534201 22.161478 437.697284-759.0227457 55.40599-598.3539053-131.900822 55.4359213-221.590986 72.6179993-282.495154 71.3439203z"/><path d="m262.153076 153.676916c-96.490908-2.018289-176.7880833 74.640747-178.6601652 171.102093-2.9947314 154.464317 68.2403082 328.479221 399.0876932 340.290783 602.329236 21.504447 424.85767-736.5302853 53.77926-580.6215506-128.031514 53.7910836-215.090068 70.4648206-274.206788 69.2286746z"/><path d="m268.726235 160.390957c-93.573808-1.957513-171.446568 72.414478-173.2600718 165.998872-2.9046038 149.854636 66.1779078 318.67886 387.0272278 330.139153 584.125139 20.862647 412.017613-714.5595648 52.153976-563.3019929-124.162074 52.1873469-208.588927 68.3630559-265.921132 67.1639679z"/><path d="m275.300978 166.61306c-90.658252-1.895308-166.103638 70.135422-167.861562 160.773143-2.814478 145.138714 64.115539 308.649188 374.965455 319.746861 565.922819 20.205642 399.179257-692.0649503 50.528719-545.570303-120.291196 50.544069-202.087892 66.211457-257.632612 65.050299z"/><path d="m281.874021 172.898401c-87.742634-1.836035-160.759095 67.909288-162.461438 155.668729-2.722851 140.532313 62.053127 298.850927 362.904924 309.597348 547.720113 19.565381 386.337622-670.0955614 48.904918-528.250297-116.424727 48.940431-195.589707 64.108322-249.348404 62.98422z"/><path d="m288.447669 179.120582c-84.825751-1.773825-155.417978 65.63001-157.061749 150.443992-2.634228 135.812936 59.990881 288.817288 350.842365 299.20405 529.518875 18.906811 373.500025-647.6017676 47.279756-510.51839-112.55408 47.296994-189.089054 61.958014-241.060372 60.870348z"/><path d="m295.021907 185.833889c-81.909969-1.714554-150.074633 63.404059-151.66282 145.341496-2.542596 131.206907 57.928353 279.019818 338.78415 289.052362 511.312143 18.266605 360.657674-625.63266652 45.651371-493.198293-108.684393 45.691987-182.587507 59.853551-232.772701 58.804435z"/><path d="m301.692946 192.119924c-79.046395-1.653779-144.826943 61.176334-146.360558 140.235372-2.454085 126.600316 55.902747 269.222648 326.937376 278.903929 493.435815 17.624817 348.048193-603.66086851 44.05658-475.879068-104.883989 44.088282-176.20384 57.753326-224.633398 56.739767z"/><path d="m308.266444 198.342066c-76.130977-1.591569-139.485764 58.897053-140.960804 135.010629-2.363962 121.880932 53.840476 259.188994 314.876166 268.510612 475.232852 16.967748 335.208942-581.1670405 42.431399-458.147133-101.014789 42.444843-169.704604 55.600017-216.346761 54.625892z"/><path d="m314.839904 204.628612c-73.214038-1.530797-134.141548 56.670962-135.561012 129.907813-2.273839 117.273119 51.778192 249.389417 302.814882 258.358296 457.029773 16.327499 322.369602-559.1965748 40.807701-440.82746-97.147063 40.842735-163.203825 53.499919-208.061571 52.561351z"/><path d="m321.415689 211.277516c-70.298282-1.468592-128.80125 54.391819-130.163631 124.681886-2.182208 112.557022 49.717181 239.359373 290.755282 247.967114 438.824714 15.670468 309.52887-536.7041154 39.180833-423.095105-93.27592 39.197895-156.703842 51.348239-199.772484 50.446105z"/><path d="m327.988684 217.563884c-67.38114-1.409313-123.456659 52.164055-124.763459 119.577174-2.090581 107.948843 47.65475 229.560524 278.694639 237.816999 420.621844 15.027169 296.688623-514.7334273 37.554024-405.775574-89.406418 37.594162-150.201104 49.244979-191.485204 48.381401z"/><path d="m334.562298 223.786202c-64.465736-1.347107-118.114009 49.88495-119.363734 114.351332-2.001958 103.232819 45.590992 219.530639 266.632003 227.424481 402.420483 14.373147 283.850938-492.239825 35.930348-388.0435-85.537243 35.950849-143.703407 47.094833-183.198617 46.267687z"/><path d="m341.13655 230.071621c-61.549962-1.286334-112.770679 47.658823-113.96482 109.248434-1.910327 98.623434 43.529968 209.732403 254.572325 217.273498 384.21531 13.72989 271.010123-470.2705009 34.304967-370.723545-81.670568 34.345716-137.201882 44.990205-174.912472 44.201613z"/><path d="m347.283532 236.293724c-58.634381-1.225624-107.427701 45.379538-108.566262 104.023679-1.820199 93.907042 41.467581 199.698737 242.510441 206.880172 366.014323 13.074317 258.170149-447.7766424 32.681188-352.991587-77.801151 32.702276-130.702276 42.839891-166.625367 42.087736z"/><path d="m353.951979 243.006777c-55.769526-1.164856-102.180412 43.152133-103.261408 98.918292-1.731693 89.301108 39.442131 189.90297 230.666071 196.731693 348.134865 12.432623 245.558636-425.806499 31.082024-335.67185-73.999536 31.0988-124.317599 40.736969-158.486687 40.021865z"/><path d="m360.526842 249.228958c-52.854035-1.102647-96.839097 40.872856-97.863017 93.693555-1.641569 84.581733 37.378309 179.870828 218.604563 186.338395 329.932945 11.774054 232.719061-403.312705 29.456801-317.939943-70.130241 29.455363-117.816706 38.585163-150.198347 37.907993z"/><path d="m367.101128 255.516963c-49.936782-1.044872-91.494302 38.645263-92.464138 88.589235-1.549938 79.973911 35.317297 170.071238 206.543459 176.18606 311.727877 11.135305 219.881318-381.342205 27.834425-300.620242-66.262091 27.851753-111.318214 36.485062-141.913746 35.844947z"/><path d="m373.674524 261.739143c-47.021308-.982662-86.151522 36.365986-87.064281 83.362996-1.459814 75.257536 33.254987 160.039103 194.482028 165.794265 293.526081 10.476736 207.041828-358.848412 26.207713-282.888335-62.392819 26.209815-104.815863 34.331756-133.62546 33.731074z"/><path d="m380.247854 268.451902c-44.105795-.923388-80.810175 34.138396-81.664357 78.258683-1.369689 70.65122 31.191152 150.242522 182.420442 155.644946 275.324045 9.836486 194.202171-336.877947 24.583977-265.568663-58.523499 24.60321-98.317921 32.23016-125.340062 31.665034z"/><path d="m386.822494 274.67335c-41.190187-.861187-75.467145 31.859436-76.265747 73.034671-1.279561 65.932498 29.130246 140.210277 170.361445 145.251592 257.118391 9.179505 181.360576-314.385776 22.955687-247.836219-54.652546 22.961499-91.815262 30.077153-117.051385 29.549956z"/><path d="m393.395688 280.959679c-38.273105-.80041-70.124163 29.634666-70.865688 67.929949-1.189433 61.324319 27.067857 130.411416 158.299558 135.101459 238.917407 8.537711 168.520601-292.415051 21.331913-230.516657-50.784631 21.356265-85.317159 27.975388-108.765783 27.485249z"/><path d="m399.970161 287.18182c-35.35745-.739699-64.781051 27.355383-65.466993 62.705207-1.097808 56.607929 25.005418 120.379259 146.238871 124.708146 220.712971 7.880638 155.681806-269.921227 19.706596-212.784726-46.915115 19.714324-78.815897 25.823578-100.478474 25.371373z"/><path d="m406.639987 293.895784c-32.492529-.678928-59.533646 25.127839-60.163521 57.60099-1.009297 52.000206 22.979927 110.581372 134.392741 114.557522 202.836111 7.240405 143.071512-247.949683 18.110395-195.465383-43.114915 18.109249-72.432577 23.722022-92.339615 23.306871z"/><path d="m413.214644 300.181458c-29.578425-.619654-54.19213 22.901665-54.764925 52.496487-.919172 47.392225 20.917524 100.784432 122.332277 104.407829 184.632008 6.598634 130.231454-225.981406 16.485108-178.145071-39.245474 16.504083-65.931436 21.620349-84.05246 21.240755z"/><path d="m419.787606 306.403599c-26.659769-.557444-48.847506 20.622384-49.364718 47.271743-.827544 42.67434 18.855077 90.75078 110.271553 94.014517 166.42902 5.941559 117.391122-203.487579 14.85979-160.41314-35.377448 14.860644-59.431655 19.468537-75.766625 19.12688z"/><path d="m426.362599 312.689235c-23.745844-.496676-43.504824 18.394936-43.966458 42.169256-.737422 38.066818 16.792807 80.953323 98.210346 83.862842 148.226056 5.299854 104.551865-181.518513 13.234603-143.093068-31.50675 13.257138-52.930917 17.365575-67.478491 17.06097z"/><path d="m432.935639 318.911991c-20.82868-.435961-38.16319 16.115558-38.566248 36.941287-.647291 33.351727 14.731861 70.922233 86.14962 73.472077 130.021556 4.644254 91.713024-159.02221 11.609281-125.361864-27.637224 11.615126-46.429636 15.215171-59.192653 14.9485z"/><path d="m439.510502 325.625124c-17.913189-.375189-32.820377 13.889428-33.167858 31.838387-.557166 28.742339 12.668039 61.122498 74.088113 63.321095 111.819639 4.000996 78.873449-137.052887 9.984058-108.041911-23.767928 10.009994-39.930237 13.112043-50.904313 12.882429z"/><path d="m445.655699 331.846532c-14.997498-.314484-27.475702 11.610464-27.767599 26.612869-.465538 24.025111 10.605575 51.093235 62.028775 52.929224 93.614982 3.345516 66.031503-114.560681 8.357224-90.309441-19.898366 8.365286-33.428896 10.959034-42.6184 10.767348z"/><path d="m452.230405 338.13286c-12.080425-.253709-22.134238 9.382698-22.369055 21.509648-.37541 19.41843 8.544692 41.292878 49.966929 42.777594 75.412551 2.70372 53.193062-92.589962 6.73345-72.989882-16.030458 6.761547-26.930809 8.858768-34.331324 8.70264z"/><path d="m458.899019 344.353799c-9.217161-.191504-16.887114 7.103604-17.064368 16.283825-.286908 14.700926 6.517808 31.261537 38.121437 32.386621 57.535158 2.045205 40.581951-70.096452 5.135834-55.257884-12.228961 5.119742-20.544838 6.705634-26.192903 6.587438z"/><path d="m465.474508 351.068967c-6.29979-.132226-11.545106 4.877369-11.666776 11.179184-.193769 10.092823 4.456719 21.464339 26.059851 22.23516 39.332368 1.406413 27.743701-48.124588 3.511901-37.938608-8.360662 3.516035-14.044591 4.605403-17.904976 4.524264z"/><path d="m472.047868 357.2902c-3.384298-.070021-6.20079 2.598225-6.266883 5.954763-.103647 5.375232 2.394394 11.431305 13.998345 11.842494 21.130453.747884 14.904125-25.632164 1.886674-20.20628-4.489864 1.87269-7.543695 2.452227-9.618136 2.409023z"/></g></svg>